<svg width="16" height="16" viewBox="0 0 16 16" fill="none" xmlns="http://www.w3.org/2000/svg">
<g clip-path="url(#clip0_36_20679)">
<path d="M7.33632 1.87389C7.36485 1.72113 7.44592 1.58316 7.56547 1.48387C7.68501 1.38458 7.83552 1.33023 7.99093 1.33023C8.14633 1.33023 8.29684 1.38458 8.41639 1.48387C8.53594 1.58316 8.617 1.72113 8.64553 1.87389L9.34542 5.5751C9.39513 5.83824 9.52301 6.08028 9.71236 6.26964C9.90172 6.459 10.1438 6.58688 10.4069 6.63659L14.1081 7.33647C14.2609 7.36501 14.3988 7.44607 14.4981 7.56562C14.5974 7.68517 14.6518 7.83568 14.6518 7.99108C14.6518 8.14648 14.5974 8.29699 14.4981 8.41654C14.3988 8.53609 14.2609 8.61715 14.1081 8.64568L10.4069 9.34557C10.1438 9.39528 9.90172 9.52316 9.71236 9.71252C9.52301 9.90187 9.39513 10.1439 9.34542 10.4071L8.64553 14.1083C8.617 14.261 8.53594 14.399 8.41639 14.4983C8.29684 14.5976 8.14633 14.6519 7.99093 14.6519C7.83552 14.6519 7.68501 14.5976 7.56547 14.4983C7.44592 14.399 7.36485 14.261 7.33632 14.1083L6.63643 10.4071C6.58673 10.1439 6.45885 9.90187 6.26949 9.71252C6.08013 9.52316 5.83809 9.39528 5.57495 9.34557L1.87374 8.64568C1.72097 8.61715 1.583 8.53609 1.48372 8.41654C1.38443 8.29699 1.33008 8.14648 1.33008 7.99108C1.33008 7.83568 1.38443 7.68517 1.48372 7.56562C1.583 7.44607 1.72097 7.36501 1.87374 7.33647L5.57495 6.63659C5.83809 6.58688 6.08013 6.459 6.26949 6.26964C6.45885 6.08028 6.58673 5.83824 6.63643 5.5751L7.33632 1.87389Z" stroke="white" stroke-width="1.33185" stroke-linecap="round" stroke-linejoin="round"/>
<path d="M13.3184 1.33185V3.99555" stroke="white" stroke-width="1.33185" stroke-linecap="round" stroke-linejoin="round"/>
<path d="M14.65 2.6637H11.9863" stroke="white" stroke-width="1.33185" stroke-linecap="round" stroke-linejoin="round"/>
<path d="M2.66388 14.6504C3.39944 14.6504 3.99573 14.0541 3.99573 13.3185C3.99573 12.583 3.39944 11.9867 2.66388 11.9867C1.92832 11.9867 1.33203 12.583 1.33203 13.3185C1.33203 14.0541 1.92832 14.6504 2.66388 14.6504Z" stroke="white" stroke-width="1.33185" stroke-linecap="round" stroke-linejoin="round"/>
</g>
<defs>
<clipPath id="clip0_36_20679">
<rect width="15.9822" height="15.9822" fill="white"/>
</clipPath>
</defs>
</svg>
