<svg width="20" height="20" viewBox="0 0 20 20" fill="none" xmlns="http://www.w3.org/2000/svg">
<g clip-path="url(#clip0_36_20825)">
<path d="M14.9966 6.66534C16.377 6.66534 17.4961 5.54627 17.4961 4.16583C17.4961 2.78539 16.377 1.66632 14.9966 1.66632C13.6161 1.66632 12.4971 2.78539 12.4971 4.16583C12.4971 5.54627 13.6161 6.66534 14.9966 6.66534Z" stroke="#1A1A1A" stroke-width="1.66634" stroke-linecap="round" stroke-linejoin="round"/>
<path d="M4.99853 12.4976C6.37898 12.4976 7.49805 11.3785 7.49805 9.99805C7.49805 8.6176 6.37898 7.49854 4.99853 7.49854C3.61809 7.49854 2.49902 8.6176 2.49902 9.99805C2.49902 11.3785 3.61809 12.4976 4.99853 12.4976Z" stroke="#1A1A1A" stroke-width="1.66634" stroke-linecap="round" stroke-linejoin="round"/>
<path d="M14.9966 18.3298C16.377 18.3298 17.4961 17.2107 17.4961 15.8303C17.4961 14.4498 16.377 13.3307 14.9966 13.3307C13.6161 13.3307 12.4971 14.4498 12.4971 15.8303C12.4971 17.2107 13.6161 18.3298 14.9966 18.3298Z" stroke="#1A1A1A" stroke-width="1.66634" stroke-linecap="round" stroke-linejoin="round"/>
<path d="M7.15723 11.2561L12.8478 14.5721" stroke="#1A1A1A" stroke-width="1.66634" stroke-linecap="round" stroke-linejoin="round"/>
<path d="M12.8394 5.42395L7.15723 8.73997" stroke="#1A1A1A" stroke-width="1.66634" stroke-linecap="round" stroke-linejoin="round"/>
</g>
<defs>
<clipPath id="clip0_36_20825">
<rect width="19.9961" height="19.9961" fill="white"/>
</clipPath>
</defs>
</svg>
