<svg width="12" height="12" viewBox="0 0 12 12" fill="none" xmlns="http://www.w3.org/2000/svg">
<g clip-path="url(#clip0_36_23076)">
<path d="M1.99822 6.99221C1.90371 6.99253 1.81104 6.96603 1.73099 6.91578C1.65094 6.86553 1.58679 6.79361 1.546 6.70835C1.5052 6.6231 1.48943 6.52802 1.50052 6.43416C1.51161 6.3403 1.54911 6.25151 1.60865 6.17811L6.55315 1.08378C6.59024 1.04097 6.64078 1.01204 6.69648 1.00174C6.75218 0.991441 6.80972 1.00038 6.85967 1.0271C6.90962 1.05382 6.949 1.09672 6.97135 1.14877C6.9937 1.20081 6.99769 1.25891 6.98267 1.31353L6.02374 4.32018C5.99546 4.39586 5.98596 4.47727 5.99606 4.55742C6.00616 4.63757 6.03555 4.71408 6.08172 4.78038C6.12788 4.84668 6.18944 4.90079 6.26111 4.93807C6.33278 4.97536 6.41243 4.99469 6.49321 4.99443H9.98932C10.0838 4.99411 10.1765 5.02061 10.2565 5.07086C10.3366 5.1211 10.4007 5.19303 10.4415 5.27829C10.4823 5.36354 10.4981 5.45862 10.487 5.55248C10.4759 5.64634 10.4384 5.73513 10.3789 5.80852L5.43439 10.9029C5.3973 10.9457 5.34676 10.9746 5.29106 10.9849C5.23536 10.9952 5.17782 10.9863 5.12787 10.9595C5.07792 10.9328 5.03854 10.8899 5.01619 10.8379C4.99384 10.7858 4.98985 10.7277 5.00487 10.6731L5.9638 7.66646C5.99208 7.59078 6.00158 7.50937 5.99148 7.42922C5.98138 7.34906 5.95199 7.27255 5.90582 7.20626C5.85966 7.13996 5.7981 7.08585 5.72643 7.04856C5.65476 7.01128 5.57511 6.99194 5.49433 6.99221H1.99822Z" stroke="#1A1A1A" stroke-width="0.998888" stroke-linecap="round" stroke-linejoin="round"/>
</g>
<defs>
<clipPath id="clip0_36_23076">
<rect width="11.9867" height="11.9867" fill="white"/>
</clipPath>
</defs>
</svg>
