<svg width="32" height="32" viewBox="0 0 32 32" fill="none" xmlns="http://www.w3.org/2000/svg">
<path d="M20.6357 17.3423L22.6557 28.7103C22.6783 28.8441 22.6595 28.9817 22.6018 29.1046C22.5442 29.2275 22.4503 29.3299 22.3329 29.398C22.2155 29.4661 22.0801 29.4968 21.9447 29.4859C21.8094 29.475 21.6807 29.423 21.5757 29.337L16.8023 25.7543C16.5719 25.5821 16.292 25.4891 16.0043 25.4891C15.7167 25.4891 15.4368 25.5821 15.2063 25.7543L10.425 29.3356C10.3201 29.4215 10.1915 29.4734 10.0563 29.4843C9.92117 29.4953 9.7859 29.4647 9.66855 29.3968C9.55121 29.3288 9.45737 29.2267 9.39956 29.1041C9.34175 28.9814 9.32272 28.844 9.345 28.7103L11.3637 17.3423" stroke="#D4AF37" stroke-width="2.66667" stroke-linecap="round" stroke-linejoin="round"/>
<path d="M16 18.8228C20.4183 18.8228 24 15.241 24 10.8228C24 6.40448 20.4183 2.82275 16 2.82275C11.5817 2.82275 8 6.40448 8 10.8228C8 15.241 11.5817 18.8228 16 18.8228Z" stroke="#D4AF37" stroke-width="2.66667" stroke-linecap="round" stroke-linejoin="round"/>
</svg>
