<svg width="12" height="12" viewBox="0 0 12 12" fill="none" xmlns="http://www.w3.org/2000/svg">
<g clip-path="url(#clip0_182_14384)">
<path d="M11.5545 7.567L7.1485 5.5675C6.92746 5.49151 6.6895 5.47925 6.46182 5.53212C6.23414 5.585 6.02593 5.70087 5.861 5.8665C5.5145 6.2125 5.4095 6.7115 5.589 7.2225L7.561 11.56C7.68 11.8215 7.9425 11.994 8.2345 11.9995H8.244C8.5295 11.9995 8.7865 11.841 8.915 11.585L9.803 9.8085L11.58 8.9205C11.7063 8.8567 11.8121 8.75871 11.8854 8.63768C11.9587 8.51666 11.9965 8.37747 11.9945 8.236C11.9917 8.09442 11.9489 7.95652 11.8712 7.83817C11.7934 7.71981 11.6838 7.62582 11.555 7.567H11.5545ZM11.356 8.473L9.4305 9.4355L8.468 11.361C8.44862 11.4025 8.41783 11.4376 8.37922 11.4622C8.34061 11.4868 8.29579 11.4999 8.25 11.5C8.20137 11.4991 8.15391 11.485 8.11275 11.4591C8.07159 11.4332 8.0383 11.3965 8.0165 11.353L6.053 7.0365C5.9455 6.728 6.004 6.4305 6.215 6.22C6.355 6.0795 6.54 6.0035 6.739 6.0035C6.8275 6.0035 6.919 6.0185 7.01 6.05L11.3475 8.022C11.3904 8.0416 11.4269 8.07293 11.4528 8.11239C11.4786 8.15184 11.4928 8.19781 11.4936 8.24498C11.4945 8.29215 11.4819 8.33859 11.4575 8.37894C11.433 8.41928 11.3982 8.4519 11.356 8.473ZM6 0H5.9915C2.687 0.0045 0 2.6945 0 6C0 9.3055 2.6915 12 6 12C6.087 12 6.174 11.998 6.2605 11.9945C6.3246 11.9888 6.38403 11.9586 6.42648 11.9102C6.46893 11.8619 6.49114 11.799 6.4885 11.7347C6.48587 11.6704 6.45859 11.6096 6.41232 11.5649C6.36605 11.5202 6.30435 11.495 6.24 11.4945C6.19386 11.4966 6.14769 11.4979 6.1015 11.4985C5.8175 11.2135 4.733 10.0635 4.057 8.4995H4.7505C4.8168 8.4995 4.88039 8.47316 4.92728 8.42628C4.97416 8.37939 5.0005 8.3158 5.0005 8.2495C5.0005 8.1832 4.97416 8.11961 4.92728 8.07272C4.88039 8.02584 4.8168 7.9995 4.7505 7.9995H3.8615C3.643 7.377 3.5005 6.7025 3.5005 5.9995C3.5005 5.2965 3.643 4.622 3.862 3.9995H8.1405C8.2315 4.2585 8.3095 4.527 8.369 4.802C8.38303 4.86679 8.42216 4.92337 8.47783 4.95936C8.5335 4.99535 8.60117 5.00781 8.666 4.994C8.73076 4.97998 8.78731 4.94082 8.82322 4.88513C8.85913 4.82944 8.87146 4.76178 8.8575 4.697C8.80624 4.46153 8.74332 4.22874 8.669 3.9995H11.124C11.403 4.71166 11.5296 5.4744 11.4955 6.2385C11.4927 6.30474 11.5162 6.36939 11.5611 6.41824C11.6059 6.4671 11.6683 6.49614 11.7345 6.499C11.7675 6.50139 11.8007 6.497 11.8319 6.48612C11.8632 6.47523 11.8919 6.45807 11.9163 6.43569C11.9407 6.41331 11.9603 6.38618 11.9738 6.35597C11.9873 6.32576 11.9945 6.2931 11.995 6.26C11.999 6.1735 12.0005 6.0865 12.0005 5.999C12 2.6915 9.3085 0 6 0ZM0.5 6C0.5 5.295 0.6335 4.62 0.8765 4H3.329C3.128 4.623 3 5.2955 3 6C3 6.7045 3.128 7.377 3.329 8H0.8765C0.627007 7.36275 0.499297 6.68435 0.5 6ZM3.5095 8.5C4.0425 9.8345 4.871 10.8925 5.381 11.465C3.5125 11.255 1.924 10.105 1.1015 8.5H3.5095ZM3.5095 3.5H1.1015C1.924 1.895 3.5125 0.745 5.3815 0.535C4.8715 1.1075 4.0425 2.1655 3.5095 3.5ZM4.0575 3.5C4.6695 2.0855 5.616 1.008 6 0.605C6.385 1.0085 7.3325 2.0865 7.944 3.5H4.0575ZM8.4875 3.5C7.9535 2.164 7.1265 1.107 6.6175 0.535C8.4865 0.745 10.075 1.895 10.898 3.5H8.4875Z" fill="#8E8E93"/>
</g>
<defs>
<clipPath id="clip0_182_14384">
<rect width="12" height="12" fill="white"/>
</clipPath>
</defs>
</svg>
