<svg width="32" height="32" viewBox="0 0 32 32" fill="none" xmlns="http://www.w3.org/2000/svg">
<path d="M26.6668 17.49C26.6668 24.1567 22.0002 27.49 16.4535 29.4234C16.163 29.5218 15.8475 29.5171 15.5602 29.41C10.0002 27.49 5.3335 24.1567 5.3335 17.49V8.15669C5.3335 7.80306 5.47397 7.46393 5.72402 7.21388C5.97407 6.96383 6.31321 6.82335 6.66683 6.82335C9.3335 6.82335 12.6668 5.22335 14.9868 3.19669C15.2693 2.95535 15.6286 2.82275 16.0002 2.82275C16.3717 2.82275 16.731 2.95535 17.0135 3.19669C19.3468 5.23669 22.6668 6.82335 25.3335 6.82335C25.6871 6.82335 26.0263 6.96383 26.2763 7.21388C26.5264 7.46393 26.6668 7.80306 26.6668 8.15669V17.49Z" stroke="#D4AF37" stroke-width="2.66667" stroke-linecap="round" stroke-linejoin="round"/>
</svg>
