<svg width="20" height="20" viewBox="0 0 20 20" fill="none" xmlns="http://www.w3.org/2000/svg">
<path d="M2.49902 9.99805C2.49902 11.4811 2.9388 12.9309 3.76275 14.164C4.5867 15.3971 5.75781 16.3582 7.12799 16.9258C8.49817 17.4933 10.0059 17.6418 11.4604 17.3525C12.915 17.0632 14.2511 16.349 15.2998 15.3003C16.3485 14.2516 17.0627 12.9155 17.352 11.4609C17.6413 10.0064 17.4928 8.49866 16.9253 7.12848C16.3578 5.7583 15.3966 4.58719 14.1635 3.76324C12.9304 2.93929 11.4806 2.49951 9.99756 2.49951C7.90126 2.5074 5.88917 3.32537 4.38199 4.7824L2.49902 6.66536" stroke="#1A1A1A" stroke-width="1.66634" stroke-linecap="round" stroke-linejoin="round"/>
<path d="M2.49902 2.49951V6.66536H6.66488" stroke="#1A1A1A" stroke-width="1.66634" stroke-linecap="round" stroke-linejoin="round"/>
</svg>
