<svg width="16" height="16" viewBox="0 0 16 16" fill="none" xmlns="http://www.w3.org/2000/svg">
<path d="M10.6548 6.65926C10.6548 7.36571 10.3742 8.04324 9.87462 8.54278C9.37507 9.04232 8.69755 9.32296 7.99109 9.32296C7.28464 9.32296 6.60711 9.04232 6.10757 8.54278C5.60803 8.04324 5.32739 7.36571 5.32739 6.65926" stroke="white" stroke-width="1.33185" stroke-linecap="round" stroke-linejoin="round"/>
<path d="M2.06641 4.01819H13.9159" stroke="white" stroke-width="1.33185" stroke-linecap="round" stroke-linejoin="round"/>
<path d="M2.26417 3.64061C2.09127 3.87115 1.9978 4.15155 1.9978 4.43972V13.3185C1.9978 13.6717 2.13812 14.0105 2.38789 14.2603C2.63766 14.51 2.97642 14.6504 3.32965 14.6504H12.6526C13.0058 14.6504 13.3446 14.51 13.5944 14.2603C13.8441 14.0105 13.9845 13.6717 13.9845 13.3185V4.43972C13.9845 4.15155 13.891 3.87115 13.7181 3.64061L12.3862 1.86459C12.2622 1.69918 12.1013 1.56492 11.9164 1.47246C11.7314 1.37999 11.5275 1.33185 11.3208 1.33185H4.6615C4.45474 1.33185 4.25082 1.37999 4.06588 1.47246C3.88095 1.56492 3.72008 1.69918 3.59602 1.86459L2.26417 3.64061Z" stroke="white" stroke-width="1.33185" stroke-linecap="round" stroke-linejoin="round"/>
</svg>
