<svg width="32" height="32" viewBox="0 0 32 32" fill="none" xmlns="http://www.w3.org/2000/svg">
<path d="M14.6899 3.90884C14.7471 3.60298 14.9094 3.32673 15.1487 3.12793C15.3881 2.92913 15.6894 2.82031 16.0006 2.82031C16.3117 2.82031 16.6131 2.92913 16.8525 3.12793C17.0918 3.32673 17.2541 3.60298 17.3113 3.90884L18.7126 11.3195C18.8121 11.8464 19.0682 12.331 19.4473 12.7101C19.8264 13.0893 20.3111 13.3453 20.8379 13.4448L28.2486 14.8462C28.5545 14.9033 28.8307 15.0656 29.0295 15.305C29.2283 15.5443 29.3371 15.8457 29.3371 16.1568C29.3371 16.468 29.2283 16.7693 29.0295 17.0087C28.8307 17.2481 28.5545 17.4104 28.2486 17.4675L20.8379 18.8688C20.3111 18.9684 19.8264 19.2244 19.4473 19.6035C19.0682 19.9827 18.8121 20.4673 18.7126 20.9942L17.3113 28.4048C17.2541 28.7107 17.0918 28.987 16.8525 29.1857C16.6131 29.3845 16.3117 29.4934 16.0006 29.4934C15.6894 29.4934 15.3881 29.3845 15.1487 29.1857C14.9094 28.987 14.7471 28.7107 14.6899 28.4048L13.2886 20.9942C13.1891 20.4673 12.933 19.9827 12.5539 19.6035C12.1747 19.2244 11.6901 18.9684 11.1633 18.8688L3.75259 17.4675C3.44673 17.4104 3.17048 17.2481 2.97168 17.0087C2.77288 16.7693 2.66406 16.468 2.66406 16.1568C2.66406 15.8457 2.77288 15.5443 2.97168 15.305C3.17048 15.0656 3.44673 14.9033 3.75259 14.8462L11.1633 13.4448C11.6901 13.3453 12.1747 13.0893 12.5539 12.7101C12.933 12.331 13.1891 11.8464 13.2886 11.3195L14.6899 3.90884Z" stroke="#D4AF37" stroke-width="2.66667" stroke-linecap="round" stroke-linejoin="round"/>
<path d="M26.666 2.82275V8.15609" stroke="#D4AF37" stroke-width="2.66667" stroke-linecap="round" stroke-linejoin="round"/>
<path d="M29.3333 5.48975H24" stroke="#D4AF37" stroke-width="2.66667" stroke-linecap="round" stroke-linejoin="round"/>
<path d="M5.33268 29.4896C6.80544 29.4896 7.99935 28.2957 7.99935 26.8229C7.99935 25.3502 6.80544 24.1562 5.33268 24.1562C3.85992 24.1562 2.66602 25.3502 2.66602 26.8229C2.66602 28.2957 3.85992 29.4896 5.33268 29.4896Z" stroke="#D4AF37" stroke-width="2.66667" stroke-linecap="round" stroke-linejoin="round"/>
</svg>
