<svg width="20" height="20" viewBox="0 0 20 20" fill="none" xmlns="http://www.w3.org/2000/svg">
<path d="M15.6329 0H4.36705C1.95905 0 0 1.95905 0 4.36705V15.6329C0 18.0409 1.95905 20 4.36705 20H15.6329C18.0409 20 20 18.0409 20 15.6329V4.36705C20 1.95905 18.0409 0 15.6329 0ZM18.9691 15.6329C18.9691 17.4725 17.4725 18.9691 15.6329 18.9691H4.36705C2.52751 18.9691 1.03093 17.4725 1.03093 15.6329V4.36705C1.03093 2.52751 2.52751 1.03093 4.36705 1.03093H15.6329C17.4725 1.03093 18.9691 2.52751 18.9691 4.36705V15.6329ZM11.4196 9.05431L15.3104 4.20503C15.4885 3.98297 15.4529 3.65856 15.2309 3.48037C15.0088 3.30227 14.6844 3.33777 14.5062 3.55988L10.7588 8.2306L7.0113 3.55988C6.963 3.49968 6.90179 3.45109 6.8322 3.4177C6.76262 3.38431 6.68642 3.36698 6.60924 3.36697H3.57414C3.47699 3.36697 3.38181 3.39443 3.29959 3.44618C3.21736 3.49793 3.15143 3.57187 3.10941 3.65946C3.06738 3.74706 3.05097 3.84474 3.06206 3.94127C3.07315 4.03779 3.11129 4.12921 3.17208 4.20499L8.58033 10.9457L4.68961 15.795C4.51146 16.017 4.54705 16.3414 4.76907 16.5196C4.8604 16.5931 4.97412 16.6331 5.09134 16.633C5.16859 16.6331 5.24487 16.6159 5.31453 16.5825C5.38419 16.5491 5.44544 16.5004 5.49373 16.4401L9.24124 11.7694L12.9887 16.4401C13.037 16.5003 13.0982 16.5489 13.1678 16.5823C13.2373 16.6157 13.3135 16.633 13.3907 16.633H16.4266C16.7113 16.633 16.9421 16.4023 16.9421 16.1176C16.9421 15.9861 16.8929 15.8663 16.812 15.7752L11.4196 9.05431ZM13.6381 15.6021L4.64862 4.3979H6.36194L15.3514 15.6021H13.6381Z" fill="white"/>
</svg>
