<svg width="64" height="64" viewBox="0 0 64 64" fill="none" xmlns="http://www.w3.org/2000/svg">
<path d="M42.6663 26.6667C42.6663 29.4956 41.5425 32.2087 39.5421 34.2091C37.5418 36.2095 34.8287 37.3333 31.9997 37.3333C29.1707 37.3333 26.4576 36.2095 24.4572 34.2091C22.4568 32.2087 21.333 29.4956 21.333 26.6667" stroke="#6B6B6B" stroke-opacity="0.5" stroke-width="5.33333" stroke-linecap="round" stroke-linejoin="round"/>
<path d="M8.27441 16.0907H55.7251" stroke="#6B6B6B" stroke-opacity="0.5" stroke-width="5.33333" stroke-linecap="round" stroke-linejoin="round"/>
<path d="M9.06667 14.5787C8.37428 15.5019 8 16.6247 8 17.7787V53.3333C8 54.7478 8.5619 56.1044 9.5621 57.1046C10.5623 58.1048 11.9188 58.6667 13.3333 58.6667H50.6667C52.0812 58.6667 53.4377 58.1048 54.4379 57.1046C55.4381 56.1044 56 54.7478 56 53.3333V17.7787C56 16.6247 55.6257 15.5019 54.9333 14.5787L49.6 7.46668C49.1032 6.8043 48.459 6.26668 47.7185 5.8964C46.9779 5.52612 46.1613 5.33334 45.3333 5.33334H18.6667C17.8387 5.33334 17.0221 5.52612 16.2815 5.8964C15.541 6.26668 14.8968 6.8043 14.4 7.46668L9.06667 14.5787Z" stroke="#6B6B6B" stroke-opacity="0.5" stroke-width="5.33333" stroke-linecap="round" stroke-linejoin="round"/>
</svg>
