<svg width="32" height="32" viewBox="0 0 32 32" fill="none" xmlns="http://www.w3.org/2000/svg">
<path d="M21.3337 13.3333C21.3337 14.7478 20.7718 16.1044 19.7716 17.1045C18.7714 18.1047 17.4148 18.6666 16.0003 18.6666C14.5858 18.6666 13.2293 18.1047 12.2291 17.1045C11.2289 16.1044 10.667 14.7478 10.667 13.3333" stroke="#D4AF37" stroke-width="2.66667" stroke-linecap="round" stroke-linejoin="round"/>
<path d="M4.1377 8.04535H27.863" stroke="#D4AF37" stroke-width="2.66667" stroke-linecap="round" stroke-linejoin="round"/>
<path d="M4.53333 7.28935C4.18714 7.75094 4 8.31237 4 8.88935V26.6667C4 27.3739 4.28095 28.0522 4.78105 28.5523C5.28115 29.0524 5.95942 29.3334 6.66667 29.3334H25.3333C26.0406 29.3334 26.7189 29.0524 27.219 28.5523C27.719 28.0522 28 27.3739 28 26.6667V8.88935C28 8.31237 27.8129 7.75094 27.4667 7.28935L24.8 3.73335C24.5516 3.40216 24.2295 3.13336 23.8592 2.94821C23.489 2.76307 23.0807 2.66669 22.6667 2.66669H9.33333C8.91935 2.66669 8.51104 2.76307 8.14076 2.94821C7.77048 3.13336 7.44839 3.40216 7.2 3.73335L4.53333 7.28935Z" stroke="#D4AF37" stroke-width="2.66667" stroke-linecap="round" stroke-linejoin="round"/>
</svg>
