<svg width="20" height="20" viewBox="0 0 20 20" fill="none" xmlns="http://www.w3.org/2000/svg">
<path d="M1.6665 7.91674C1.66652 6.98941 1.94783 6.08389 2.47328 5.31979C2.99873 4.55569 3.7436 3.96896 4.60951 3.63707C5.47542 3.30519 6.42164 3.24378 7.32318 3.46094C8.22473 3.67811 9.03919 4.16364 9.659 4.85341C9.70266 4.90009 9.75544 4.9373 9.81407 4.96274C9.8727 4.98818 9.93593 5.00131 9.99984 5.00131C10.0637 5.00131 10.127 4.98818 10.1856 4.96274C10.2442 4.9373 10.297 4.90009 10.3407 4.85341C10.9585 4.15916 11.7732 3.66955 12.6762 3.44974C13.5792 3.22994 14.5277 3.29036 15.3956 3.62298C16.2634 3.95559 17.0093 4.54462 17.5341 5.31166C18.0589 6.0787 18.3376 6.98737 18.3332 7.91674C18.3332 9.82507 17.0832 11.2501 15.8332 12.5001L11.2565 16.9276C11.1012 17.1059 10.9098 17.2492 10.6949 17.3478C10.48 17.4465 10.2465 17.4983 10.0101 17.4998C9.77362 17.5013 9.53954 17.4524 9.32341 17.3565C9.10728 17.2606 8.91403 17.1198 8.7565 16.9434L4.1665 12.5001C2.9165 11.2501 1.6665 9.83341 1.6665 7.91674Z" stroke="black" stroke-width="1.66667" stroke-linecap="round" stroke-linejoin="round"/>
</svg>
