<svg width="16" height="16" viewBox="0 0 16 16" fill="none" xmlns="http://www.w3.org/2000/svg">
<g clip-path="url(#clip0_126_29815)">
<path d="M7.24524 14.6104L10.2952 9.32295" stroke="#0A0A0A" stroke-width="1.33185" stroke-linecap="round" stroke-linejoin="round"/>
<path d="M14.0976 5.32741H7.99109" stroke="#0A0A0A" stroke-width="1.33185" stroke-linecap="round" stroke-linejoin="round"/>
<path d="M2.63037 4.03551L5.68697 9.32295" stroke="#0A0A0A" stroke-width="1.33185" stroke-linecap="round" stroke-linejoin="round"/>
<path d="M7.99116 14.6504C11.669 14.6504 14.6504 11.6689 14.6504 7.9911C14.6504 4.3133 11.669 1.33185 7.99116 1.33185C4.31336 1.33185 1.33191 4.3133 1.33191 7.9911C1.33191 11.6689 4.31336 14.6504 7.99116 14.6504Z" stroke="#0A0A0A" stroke-width="1.33185" stroke-linecap="round" stroke-linejoin="round"/>
<path d="M7.99109 10.6548C9.46222 10.6548 10.6548 9.46223 10.6548 7.99111C10.6548 6.51999 9.46222 5.32741 7.99109 5.32741C6.51997 5.32741 5.32739 6.51999 5.32739 7.99111C5.32739 9.46223 6.51997 10.6548 7.99109 10.6548Z" stroke="#0A0A0A" stroke-width="1.33185" stroke-linecap="round" stroke-linejoin="round"/>
</g>
<defs>
<clipPath id="clip0_126_29815">
<rect width="15.9822" height="15.9822" fill="white"/>
</clipPath>
</defs>
</svg>
