<svg width="20" height="20" viewBox="0 0 20 20" fill="none" xmlns="http://www.w3.org/2000/svg">
<path d="M18.1048 14.997L11.4394 3.33266C11.2941 3.07622 11.0834 2.86291 10.8287 2.71451C10.574 2.56611 10.2845 2.48792 9.98973 2.48792C9.69497 2.48792 9.40548 2.56611 9.15079 2.71451C8.89611 2.86291 8.68535 3.07622 8.54002 3.33266L1.87465 14.997C1.72775 15.2515 1.65072 15.5402 1.65137 15.834C1.65202 16.1278 1.73033 16.4161 1.87836 16.6699C2.02639 16.9237 2.23887 17.1338 2.49428 17.279C2.74968 17.4241 3.03893 17.4992 3.3327 17.4966H16.6634C16.9558 17.4963 17.2429 17.419 17.496 17.2727C17.7491 17.1263 17.9592 16.9159 18.1052 16.6627C18.2513 16.4094 18.3281 16.1222 18.3281 15.8298C18.328 15.5374 18.251 15.2502 18.1048 14.997Z" stroke="#D08700" stroke-width="1.66634" stroke-linecap="round" stroke-linejoin="round"/>
<path d="M9.99805 7.49854V10.8312" stroke="#D08700" stroke-width="1.66634" stroke-linecap="round" stroke-linejoin="round"/>
<path d="M9.99805 14.1639H10.0064" stroke="#D08700" stroke-width="1.66634" stroke-linecap="round" stroke-linejoin="round"/>
</svg>
